<?xml version="1.0" encoding="UTF-8"?>
<!-- Generator: Adobe Illustrator 15.0.0, SVG Export Plug-In  -->
<!DOCTYPE svg PUBLIC "-//W3C//DTD SVG 1.1//EN" "http://www.w3.org/Graphics/SVG/1.1/DTD/svg11.dtd" [
	<!ENTITY ns_flows "http://ns.adobe.com/Flows/1.0/">
]>
<svg version="1.1" xmlns="http://www.w3.org/2000/svg" xmlns:xlink="http://www.w3.org/1999/xlink" xmlns:a="http://ns.adobe.com/AdobeSVGViewerExtensions/3.0/" x="0px" y="0px" width="150px" height="100px" viewBox="-1.939 -0.948 150 100" overflow="visible" enable-background="new -1.939 -0.948 150 100" xml:space="preserve">
<defs>
</defs>
<path fill="#004B88" d="M104.192,40.472h3.555c1.619,0,2.795,0.23,3.527,0.691c0.731,0.461,1.098,1.194,1.098,2.199  c0,0.683-0.16,1.242-0.48,1.68s-0.746,0.701-1.277,0.789v0.078c0.724,0.162,1.246,0.464,1.566,0.906  c0.32,0.443,0.48,1.031,0.48,1.766c0,1.042-0.377,1.854-1.129,2.438c-0.753,0.584-1.775,0.875-3.066,0.875h-4.273V40.472z   M106.614,44.995h1.406c0.656,0,1.131-0.102,1.426-0.305c0.294-0.203,0.441-0.539,0.441-1.008c0-0.438-0.16-0.751-0.48-0.941  c-0.32-0.189-0.827-0.285-1.52-0.285h-1.273V44.995z M106.614,46.917v2.977h1.578c0.666,0,1.158-0.127,1.477-0.383  c0.317-0.255,0.477-0.646,0.477-1.172c0-0.947-0.678-1.422-2.031-1.422H106.614z"/>
<path fill="#004B88" d="M119.778,51.894l-2.75-8.961h-0.07c0.099,1.823,0.148,3.039,0.148,3.648v5.312h-2.164V40.472h3.297  l2.703,8.734h0.047l2.867-8.734h3.297v11.422h-2.258v-5.406c0-0.255,0.004-0.549,0.012-0.883c0.008-0.333,0.043-1.219,0.105-2.656  h-0.07l-2.945,8.945H119.778z"/>
<path fill="#004B88" d="M130.028,51.894V40.472h2.422v11.422H130.028z"/>
<path fill="#004B88" d="M142.067,48.722c0,1.031-0.371,1.844-1.113,2.438s-1.775,0.891-3.098,0.891  c-1.219,0-2.297-0.229-3.234-0.688v-2.25c0.771,0.344,1.423,0.586,1.957,0.727c0.533,0.141,1.021,0.211,1.465,0.211  c0.531,0,0.938-0.102,1.223-0.305c0.283-0.203,0.426-0.505,0.426-0.906c0-0.224-0.062-0.423-0.188-0.598  c-0.125-0.174-0.309-0.342-0.551-0.504c-0.242-0.161-0.736-0.419-1.48-0.773c-0.698-0.328-1.222-0.643-1.57-0.945  c-0.35-0.302-0.628-0.653-0.836-1.055c-0.209-0.4-0.312-0.869-0.312-1.406c0-1.01,0.342-1.805,1.027-2.383  c0.685-0.578,1.631-0.867,2.84-0.867c0.594,0,1.16,0.07,1.699,0.211s1.103,0.339,1.691,0.594l-0.781,1.883  c-0.609-0.25-1.113-0.424-1.512-0.523c-0.398-0.099-0.791-0.148-1.176-0.148c-0.459,0-0.811,0.107-1.055,0.32  c-0.245,0.214-0.367,0.492-0.367,0.836c0,0.214,0.049,0.4,0.148,0.559c0.099,0.159,0.256,0.312,0.473,0.461  c0.216,0.148,0.728,0.416,1.535,0.801c1.067,0.511,1.799,1.022,2.195,1.535C141.869,47.349,142.067,47.978,142.067,48.722z"/>
<path fill="#004B88" d="M92.614,46.25c0,28.342-24.25,51.854-49.126,51.854c-0.039,0,2.857-7.522,2.819-7.522  C20.731,90.581,0,71.791,0,46.25C0,20.707,20.731,0,46.308,0C71.879,0,92.614,20.707,92.614,46.25"/>
<path fill="#FFFFFF" d="M71.331,61.52c0.529-0.113,1.025-0.287,1.491-0.52v-2.057c-0.569,0.266-1.115,0.461-1.639,0.584  c-0.523,0.121-1.08,0.184-1.666,0.184c-0.756,0-1.343-0.213-1.762-0.637c-0.418-0.426-0.643-1.016-0.67-1.77h6.286v-1.293  c0-1.383-0.384-2.469-1.15-3.252c-0.767-0.785-1.84-1.178-3.219-1.178c-1.442,0-2.57,0.445-3.387,1.34  c-0.816,0.891-1.227,2.154-1.227,3.787c0,1.588,0.443,2.814,1.326,3.68c0.882,0.869,2.11,1.301,3.68,1.301  C70.157,61.689,70.803,61.633,71.331,61.52 M70.363,54.012c0.332,0.355,0.503,0.863,0.516,1.52h-3.733  c0.045-0.656,0.229-1.164,0.551-1.52c0.317-0.357,0.762-0.539,1.323-0.539C69.585,53.473,70.031,53.654,70.363,54.012   M61.778,61.531c0.438-0.104,0.872-0.293,1.303-0.566v-2.275c-0.437,0.291-0.873,0.504-1.309,0.641  c-0.437,0.137-0.909,0.205-1.421,0.205c-1.384,0-2.075-0.953-2.075-2.861c0-1.965,0.691-2.947,2.075-2.947  c0.361,0,0.719,0.055,1.083,0.162c0.358,0.107,0.749,0.246,1.168,0.415l0.785-2.06c-0.896-0.441-1.908-0.662-3.036-0.662  c-1.542,0-2.725,0.438-3.551,1.312c-0.824,0.875-1.236,2.141-1.236,3.797c0,3.332,1.517,4.998,4.552,4.998  C60.785,61.689,61.338,61.638,61.778,61.531 M53.724,51.764h-2.66v9.752h2.66V51.764z M52.398,50.553  c0.482,0,0.844-0.115,1.085-0.344c0.242-0.23,0.363-0.551,0.363-0.965c0-0.865-0.483-1.299-1.448-1.299s-1.448,0.434-1.448,1.299  C50.95,50.117,51.434,50.553,52.398,50.553 M46.312,61.516l3.714-9.752h-2.781L45.37,57.32c-0.233,0.773-0.366,1.439-0.394,1.998  h-0.052c-0.054-0.629-0.184-1.295-0.394-1.998l-1.884-5.557h-2.78l3.714,9.752H46.312z M32.915,58.85  c-0.329-0.479-0.496-1.199-0.496-2.158s0.164-1.689,0.492-2.192c0.329-0.503,0.789-0.753,1.382-0.753  c0.727,0,1.252,0.225,1.574,0.68c0.323,0.451,0.483,1.201,0.483,2.248v0.289c-0.028,0.947-0.201,1.619-0.519,2.016  c-0.317,0.395-0.814,0.592-1.494,0.592C33.721,59.57,33.246,59.33,32.915,58.85 M36.169,60.25h0.113l0.515,1.266h2.039v-13.57  h-2.667v3.121c0,0.571,0.066,1.219,0.198,1.945h-0.085c-0.646-0.953-1.582-1.43-2.808-1.43c-1.171,0-2.087,0.445-2.752,1.34  c-0.665,0.891-0.999,2.137-0.999,3.734c0,1.576,0.327,2.809,0.98,3.699c0.655,0.889,1.555,1.334,2.7,1.334  C34.643,61.689,35.564,61.21,36.169,60.25 M25.649,57.799c0,0.588-0.183,1.059-0.553,1.414c-0.369,0.354-0.861,0.531-1.478,0.531  c-0.861,0-1.292-0.375-1.292-1.125c0-0.523,0.189-0.912,0.567-1.168s0.953-0.396,1.727-0.418l1.028-0.035V57.799z M28.292,61.516  V55.02c0-1.164-0.348-2.031-1.046-2.602c-0.696-0.568-1.701-0.854-3.009-0.854c-1.366,0-2.61,0.295-3.734,0.881l0.883,1.797  c1.052-0.473,1.968-0.707,2.747-0.707c1.011,0,1.517,0.494,1.517,1.484v0.426l-1.69,0.053c-1.461,0.051-2.551,0.324-3.276,0.814  c-0.722,0.492-1.085,1.254-1.085,2.291c0,0.988,0.27,1.748,0.806,2.285c0.539,0.533,1.275,0.801,2.213,0.801  c0.761,0,1.378-0.109,1.853-0.328c0.473-0.217,0.934-0.607,1.383-1.172h0.07l0.514,1.326H28.292z"/>
<path fill="#FFFFFF" d="M78.099,39.109c-0.167-0.348-0.43-0.656-0.785-0.924c-0.354-0.268-0.911-0.555-1.674-0.862  c-0.854-0.345-1.408-0.603-1.66-0.776c-0.253-0.176-0.381-0.381-0.381-0.621c0-0.424,0.394-0.635,1.179-0.635  c0.439,0,0.873,0.066,1.299,0.2c0.425,0.134,0.881,0.306,1.369,0.515l0.803-1.918c-1.111-0.514-2.253-0.768-3.428-0.768  c-1.234,0-2.185,0.236-2.855,0.709c-0.673,0.475-1.011,1.145-1.011,2.012c0,0.506,0.081,0.932,0.243,1.277  c0.159,0.346,0.414,0.652,0.768,0.92c0.351,0.268,0.901,0.557,1.651,0.871c0.522,0.222,0.942,0.416,1.256,0.58  c0.313,0.166,0.535,0.314,0.663,0.445c0.127,0.131,0.191,0.301,0.191,0.51c0,0.559-0.482,0.838-1.447,0.838  c-0.471,0-1.016-0.078-1.635-0.236c-0.619-0.156-1.177-0.35-1.671-0.584v2.197c0.437,0.186,0.905,0.328,1.405,0.424  c0.498,0.096,1.103,0.145,1.812,0.145c1.384,0,2.423-0.264,3.118-0.785c0.694-0.525,1.042-1.285,1.042-2.285  C78.352,39.875,78.267,39.459,78.099,39.109 M69.169,36.896c0-1.158-0.294-2.042-0.881-2.657c-0.586-0.613-1.447-0.918-2.582-0.918  c-0.661,0-1.254,0.119-1.774,0.359c-0.521,0.244-0.929,0.6-1.225,1.07h-0.149l-0.356-1.248h-2.032v9.75h2.66v-4.586  c0-1.152,0.165-1.977,0.495-2.473c0.333-0.498,0.871-0.746,1.614-0.746c0.548,0,0.945,0.176,1.195,0.527s0.376,0.879,0.376,1.582  v5.695h2.659V36.896z M56.324,43.256c0.526-0.113,1.024-0.285,1.489-0.518V40.68c-0.569,0.268-1.115,0.462-1.64,0.584  c-0.522,0.123-1.078,0.184-1.665,0.184c-0.757,0-1.343-0.213-1.762-0.637s-0.642-1.014-0.672-1.771h6.288v-1.29  c0-1.384-0.383-2.466-1.15-3.253c-0.768-0.783-1.841-1.176-3.218-1.176c-1.443,0-2.571,0.445-3.391,1.338  c-0.814,0.893-1.224,2.154-1.224,3.789c0,1.588,0.442,2.812,1.326,3.68s2.11,1.301,3.68,1.301  C55.148,43.428,55.795,43.369,56.324,43.256 M55.354,35.748c0.332,0.357,0.503,0.865,0.515,1.521h-3.732  c0.046-0.656,0.229-1.164,0.551-1.521c0.318-0.357,0.762-0.537,1.324-0.537C54.575,35.211,55.023,35.391,55.354,35.748   M48.404,41.221h-4.554l4.396-5.992v-1.727h-7.273v2.033h4.247l-4.518,6.147v1.569h7.701V41.221z M39.186,33.502h-2.66v9.75h2.66  V33.502z M37.859,32.291c0.483,0,0.845-0.115,1.087-0.346c0.24-0.229,0.361-0.551,0.361-0.963c0-0.865-0.482-1.3-1.448-1.3  c-0.964,0-1.447,0.435-1.447,1.3C36.412,31.854,36.896,32.291,37.859,32.291 M32.396,41.037c-0.215-0.182-0.318-0.459-0.318-0.836  V35.5h2.729v-1.998h-2.729v-2.074h-1.701l-0.768,2.057l-1.464,0.891V35.5h1.273v4.701c0,1.075,0.243,1.883,0.728,2.42  c0.486,0.537,1.26,0.807,2.324,0.807c0.965,0,1.777-0.148,2.441-0.445v-1.98c-0.651,0.203-1.208,0.305-1.674,0.305  C32.89,41.307,32.608,41.218,32.396,41.037 M26.696,33.502h-2.658v9.75h2.658V33.502z M25.371,32.291  c0.481,0,0.845-0.115,1.087-0.346c0.24-0.229,0.359-0.551,0.359-0.963c0-0.865-0.481-1.3-1.446-1.3s-1.448,0.435-1.448,1.3  C23.923,31.854,24.406,32.291,25.371,32.291 M20.831,43.27c0.44-0.105,0.875-0.293,1.305-0.566v-2.277  c-0.438,0.292-0.873,0.506-1.309,0.642c-0.437,0.138-0.91,0.206-1.421,0.206c-1.386,0-2.075-0.953-2.075-2.861  c0-1.965,0.689-2.947,2.075-2.947c0.36,0,0.721,0.053,1.082,0.16c0.36,0.107,0.75,0.247,1.169,0.416l0.783-2.059  c-0.896-0.442-1.906-0.662-3.034-0.662c-1.542,0-2.726,0.436-3.551,1.312c-0.825,0.875-1.236,2.141-1.236,3.797  c0,3.332,1.517,4.998,4.551,4.998C19.838,43.428,20.393,43.375,20.831,43.27"/>
</svg>