<svg id="Layer_1" data-name="Layer 1" xmlns="http://www.w3.org/2000/svg" xmlns:xlink="http://www.w3.org/1999/xlink" viewBox="0 0 811.89 126.55"><defs><style>.cls-1{fill:none;}.cls-2{clip-path:url(#clip-path);}.cls-3{fill:#fff;}</style><clipPath id="clip-path" transform="translate(-15 -234.36)"><rect class="cls-1" x="15" y="234.36" width="811.89" height="126.55"/></clipPath></defs><title>white single line logo</title><g class="cls-2"><path class="cls-3" d="M133.47,294c0,36.56-31,66.89-62.84,66.89,0,0,3.65-9.7,3.6-9.7C41.52,351.21,15,327,15,294s26.52-59.66,59.23-59.66,59.24,26.71,59.24,59.66" transform="translate(-15 -234.36)"/><path class="cls-3" d="M584.12,329V294q0-9.39-5.63-14t-16.21-4.6a42.72,42.72,0,0,0-20.1,4.74l4.75,9.67q8.49-3.79,14.79-3.8,8.17,0,8.17,8v2.3l-9.11.28Q549,297,543.14,301t-5.84,12.32q0,8,4.34,12.3t11.91,4.32a24.12,24.12,0,0,0,10-1.76,21.2,21.2,0,0,0,7.44-6.32h.38l2.77,7.14Zm-14.23-20a10.06,10.06,0,0,1-3,7.61,11,11,0,0,1-8,2.86q-6.94,0-7-6.06a7,7,0,0,1,3-6.28q3.06-2.07,9.3-2.26l5.54-.18Zm56.64,13.2h.62l2.77,6.8h11v-73H626.53v16.81a58.48,58.48,0,0,0,1.08,10.46h-.46q-5.22-7.69-15.13-7.69-9.43,0-14.82,7.2t-5.37,20.12q0,12.72,5.28,19.9a17.08,17.08,0,0,0,14.54,7.18q10,0,14.88-7.74M609,314.63q-2.68-3.87-2.68-11.62t2.65-11.8a8.41,8.41,0,0,1,7.45-4.06q5.87,0,8.48,3.66t2.6,12.11v1.55q-.24,7.65-2.8,10.84c-1.7,2.13-4.39,3.19-8.05,3.19a8.73,8.73,0,0,1-7.65-3.87M681.16,329l20-52.48h-15l-10.1,29.9A47.14,47.14,0,0,0,674,317.14h-.28a53.09,53.09,0,0,0-2.12-10.75l-10.14-29.9h-15l20,52.48Zm32.78-59c2.59,0,4.55-.62,5.85-1.86a6.82,6.82,0,0,0,1.94-5.18q0-7-7.79-7t-7.8,7q0,7,7.8,7m7.14,6.52H706.75V329h14.33Zm43.37,52.57a23.09,23.09,0,0,0,7-3.05V313.76a27.43,27.43,0,0,1-7,3.45,25.42,25.42,0,0,1-7.66,1.1q-11.17,0-11.18-15.39,0-15.87,11.18-15.87a20.35,20.35,0,0,1,5.83.87q2.89.87,6.29,2.23l4.22-11.08a36.56,36.56,0,0,0-16.34-3.56q-12.45,0-19.11,7.06T731,303q0,26.91,24.51,26.9a39.16,39.16,0,0,0,9-.85m46.24-40.48c1.78,1.92,2.71,4.65,2.77,8.19h-20.1c.25-3.54,1.23-6.27,3-8.19a9.07,9.07,0,0,1,7.14-2.89,9.38,9.38,0,0,1,7.23,2.89M815.9,329a33.33,33.33,0,0,0,8-2.79V315.12a45.08,45.08,0,0,1-8.83,3.15,39.21,39.21,0,0,1-9,1q-6.11,0-9.48-3.42T793,306.3h33.86v-6.95q0-11.16-6.2-17.51t-17.33-6.33q-11.64,0-18.25,7.2t-6.59,20.4q0,12.81,7.13,19.8t19.82,7A50.63,50.63,0,0,0,815.9,329" transform="translate(-15 -234.36)"/><path class="cls-3" d="M198.18,329.06a23.09,23.09,0,0,0,7-3.05V313.76a27.32,27.32,0,0,1-7,3.45,25.3,25.3,0,0,1-7.65,1.1q-11.17,0-11.18-15.39,0-15.87,11.18-15.87a20.23,20.23,0,0,1,5.82.87q2.91.87,6.3,2.23l4.22-11.08a36.56,36.56,0,0,0-16.34-3.56q-12.45,0-19.12,7.06T164.71,303q0,26.89,24.52,26.9a39.16,39.16,0,0,0,9-.85M222.62,270q3.9,0,5.85-1.86a6.79,6.79,0,0,0,1.95-5.18q0-7-7.8-7t-7.79,7q0,7,7.79,7m7.14,6.52H215.44V329h14.32Zm30.69,40.56a5.61,5.61,0,0,1-1.71-4.51v-25.3h14.7V276.49h-14.7V265.32h-9.16l-4.13,11.08-7.89,4.78v6.06h6.86v25.3q0,8.68,3.92,13t12.52,4.34a32.07,32.07,0,0,0,13.14-2.4V316.86a30.84,30.84,0,0,1-9,1.64,6.8,6.8,0,0,1-4.54-1.45M289.88,270q3.9,0,5.85-1.86a6.79,6.79,0,0,0,1.95-5.18q0-7-7.8-7t-7.8,7q0,7,7.8,7m7.14,6.52H282.69V329H297ZM346.66,318H322.15l23.67-32.24v-9.3H306.65v10.94h22.87l-24.33,33.09V329h41.47Zm37.43-29.45q2.69,2.88,2.77,8.19H366.77c.24-3.54,1.23-6.27,3-8.19a9.07,9.07,0,0,1,7.14-2.89,9.35,9.35,0,0,1,7.23,2.89M389.31,329a33.33,33.33,0,0,0,8-2.79V315.12a45.08,45.08,0,0,1-8.83,3.15,39.27,39.27,0,0,1-9,1q-6.1,0-9.49-3.43t-3.61-9.52H400.3v-6.95q0-11.16-6.2-17.51t-17.33-6.33q-11.65,0-18.25,7.2t-6.6,20.4q0,12.81,7.14,19.8t19.82,7a50.7,50.7,0,0,0,10.43-.92m69.18-34.24q0-9.35-4.75-14.29t-13.9-4.95a22.64,22.64,0,0,0-9.56,1.94,15.13,15.13,0,0,0-6.59,5.75h-.8L421,276.49H410V329h14.33V304.28c0-6.2.88-10.63,2.67-13.31s4.68-4,8.69-4c2.94,0,5.09,1,6.43,2.84s2,4.73,2,8.52V329h14.33Zm48.09,11.92a13.83,13.83,0,0,0-4.23-5,41.43,41.43,0,0,0-9-4.65,55.59,55.59,0,0,1-8.94-4.18,4,4,0,0,1-2-3.33c0-2.28,2.11-3.43,6.34-3.43a23.13,23.13,0,0,1,7,1.08c2.29.72,4.75,1.65,7.38,2.77l4.32-10.32a43.58,43.58,0,0,0-18.46-4.13q-10,0-15.38,3.82a12.46,12.46,0,0,0-5.42,10.82,16.37,16.37,0,0,0,1.29,6.88,13.25,13.25,0,0,0,4.13,5,42.62,42.62,0,0,0,8.9,4.69q4.23,1.79,6.76,3.13a15.11,15.11,0,0,1,3.57,2.39,3.75,3.75,0,0,1,1,2.74q0,4.51-7.8,4.51a36.24,36.24,0,0,1-8.81-1.27,49.75,49.75,0,0,1-9-3.14v11.83a36.72,36.72,0,0,0,7.56,2.27,52.39,52.39,0,0,0,9.77.78q11.18,0,16.79-4.23t5.61-12.3a15.27,15.27,0,0,0-1.36-6.71" transform="translate(-15 -234.36)"/></g></svg>