<svg id="Layer_1" xmlns="http://www.w3.org/2000/svg" viewBox="-165 367 274.3 43"><style>.st0{fill:#FFFFFF;}</style><path class="st0" d="M-125 387.3c0 12.4-10.5 22.7-21.2 22.7l1.2-3.3c-11.1 0-20-8.2-20-19.4s9-20.3 20-20.3c11.1 0 20 9.1 20 20.3M27.3 399.1v-11.9c0-2.1-.6-3.7-1.9-4.8-1.3-1-3.1-1.6-5.5-1.6-2.5 0-4.7.5-6.8 1.6l1.6 3.3c1.9-.9 3.6-1.3 5-1.3 1.8 0 2.8.9 2.8 2.7v.8l-3.1.1c-2.7.1-4.6.6-6 1.5-1.3.9-2 2.3-2 4.2 0 1.8.5 3.2 1.5 4.2s2.3 1.5 4 1.5c1.4 0 2.5-.2 3.4-.6.9-.4 1.7-1.1 2.5-2.1h.2l.9 2.4h3.4zm-4.8-6.8c0 1.1-.3 1.9-1 2.6-.7.6-1.6 1-2.7 1-1.6 0-2.3-.7-2.3-2.1 0-1 .3-1.7 1-2.1.7-.5 1.7-.7 3.1-.8l1.9-.1v1.5zm19.1 4.5h.2l.9 2.3h3.7v-24.8h-4.9v5.7c0 1 .1 2.2.4 3.6h-.2c-1.2-1.7-2.9-2.6-5.1-2.6-2.1 0-3.8.8-5 2.4-1.2 1.6-1.8 3.9-1.8 6.8s.6 5.1 1.8 6.8c1.2 1.6 2.8 2.4 4.9 2.4 2.4 0 4-.8 5.1-2.6m-5.9-2.5c-.6-.9-.9-2.2-.9-3.9 0-1.8.3-3.1.9-4 .6-.9 1.4-1.4 2.5-1.4 1.3 0 2.3.4 2.9 1.2.6.8.9 2.2.9 4.1v.5c-.1 1.7-.4 3-.9 3.7-.6.7-1.5 1.1-2.7 1.1-1.2 0-2.1-.5-2.7-1.3m24.4 4.8l6.8-17.8h-5.1l-3.4 10.2c-.4 1.4-.7 2.6-.7 3.7h-.1c-.1-1.1-.3-2.4-.7-3.7l-3.4-10.2h-5.1l6.8 17.8h4.9zm11.1-20c.9 0 1.5-.2 2-.6s.7-1 .7-1.8c0-1.6-.9-2.4-2.6-2.4-1.8 0-2.6.8-2.6 2.4-.2 1.6.7 2.4 2.5 2.4m2.4 2.2h-4.8v17.8h4.8v-17.8zm14.6 17.9c.8-.2 1.6-.5 2.4-1V394c-.8.5-1.6.9-2.4 1.2-.8.3-1.7.4-2.6.4-2.5 0-3.8-1.7-3.8-5.2 0-3.6 1.3-5.4 3.8-5.4.7 0 1.3.1 2 .3.7.2 1.4.4 2.1.8l1.4-3.8c-1.6-.8-3.5-1.2-5.5-1.2-2.8 0-5 .8-6.5 2.4-1.5 1.6-2.3 3.9-2.3 6.9 0 6.1 2.8 9.1 8.3 9.1 1.3-.1 2.3-.1 3.1-.3m15.7-13.8c.6.7.9 1.6.9 2.8H98c.1-1.2.4-2.1 1-2.8.6-.7 1.4-1 2.4-1s1.9.4 2.5 1m1.7 13.7c1-.2 1.9-.5 2.7-.9v-3.8c-1 .5-2 .8-3 1.1-1 .2-2 .3-3 .3-1.4 0-2.4-.4-3.2-1.2-.8-.8-1.2-1.9-1.2-3.2h11.4V389c0-2.5-.7-4.5-2.1-5.9-1.4-1.4-3.4-2.2-5.9-2.2-2.6 0-4.7.8-6.2 2.4-1.5 1.6-2.2 3.9-2.2 6.9 0 2.9.8 5.1 2.4 6.7 1.6 1.6 3.8 2.4 6.7 2.4 1.5.1 2.7 0 3.6-.2M-103.1 399.2c.8-.2 1.6-.5 2.4-1V394c-.8.5-1.6.9-2.4 1.2-.8.3-1.7.4-2.6.4-2.5 0-3.8-1.7-3.8-5.2 0-3.6 1.3-5.4 3.8-5.4.7 0 1.3.1 2 .3.7.2 1.4.5 2.1.8l1.4-3.8c-1.6-.8-3.5-1.2-5.5-1.2-2.8 0-5 .8-6.5 2.4-1.5 1.6-2.3 3.9-2.3 6.9 0 6.1 2.8 9.1 8.3 9.1 1.3-.1 2.3-.1 3.1-.3m8.3-20.1c.9 0 1.5-.2 2-.6.4-.4.7-1 .7-1.8 0-1.6-.9-2.4-2.6-2.4-1.8 0-2.6.8-2.6 2.4-.2 1.6.7 2.4 2.5 2.4m2.4 2.2h-4.8v17.8h4.8v-17.8zm10.3 13.8c-.4-.3-.6-.8-.6-1.5V385h5v-3.7h-5v-3.8h-3.1l-1.4 3.8-2.7 1.6v2.1h2.3v8.6c0 2 .4 3.4 1.3 4.4.9 1 2.3 1.5 4.2 1.5 1.8 0 3.2-.3 4.4-.8V395c-1.2.4-2.2.6-3 .6-.5 0-1-.2-1.4-.5m10-16c.9 0 1.5-.2 2-.6.4-.4.7-1 .7-1.8 0-1.6-.9-2.4-2.6-2.4-1.8 0-2.6.8-2.6 2.4-.1 1.6.7 2.4 2.5 2.4m2.4 2.2h-4.8v17.8h4.8v-17.8zm16.8 14.1h-8.3l8-11v-3.2h-13.2v3.7h7.7l-8.2 11.2v2.9h14v-3.6zm12.6-10c.6.7.9 1.6.9 2.8h-6.8c.1-1.2.4-2.1 1-2.8.6-.7 1.4-1 2.4-1 1.1 0 1.9.4 2.5 1m1.8 13.7c1-.2 1.9-.5 2.7-.9v-3.8c-1 .5-2 .8-3 1.1-1 .2-2 .3-3 .3-1.4 0-2.4-.4-3.2-1.2s-1.2-1.9-1.2-3.2h11.4V389c0-2.5-.7-4.5-2.1-5.9s-3.3-2.2-5.9-2.2c-2.6 0-4.7.8-6.2 2.4-1.5 1.6-2.2 3.9-2.2 6.9 0 2.9.8 5.1 2.4 6.7 1.6 1.6 3.8 2.4 6.7 2.4 1.4.1 2.6 0 3.6-.2m23.4-11.6c0-2.1-.5-3.7-1.6-4.9-1.1-1.1-2.6-1.7-4.7-1.7-1.2 0-2.3.2-3.2.7-.9.4-1.7 1.1-2.2 2h-.3l-.6-2.3h-3.7v17.8h4.8v-8.4c0-2.1.3-3.6.9-4.5.6-.9 1.6-1.4 2.9-1.4 1 0 1.7.3 2.2 1 .5.6.7 1.6.7 2.9v10.4h4.8v-11.6zm16.2 4.1c-.3-.6-.8-1.2-1.4-1.7-.6-.5-1.7-1-3-1.6-1.6-.6-2.6-1.1-3-1.4-.5-.3-.7-.7-.7-1.1 0-.8.7-1.2 2.1-1.2.8 0 1.6.1 2.4.4.8.2 1.6.6 2.5.9l1.5-3.5c-2-.9-4.1-1.4-6.2-1.4-2.2 0-4 .4-5.2 1.3-1.2.9-1.8 2.1-1.8 3.7 0 .9.1 1.7.4 2.3.3.6.8 1.2 1.4 1.7.6.5 1.6 1 3 1.6 1 .4 1.7.8 2.3 1.1.6.3 1 .6 1.2.8.2.2.3.6.3.9 0 1-.9 1.5-2.6 1.5-.9 0-1.9-.1-3-.4-1.1-.3-2.1-.6-3-1.1v4c.8.3 1.6.6 2.6.8.9.2 2 .3 3.3.3 2.5 0 4.4-.5 5.7-1.4 1.3-1 1.9-2.3 1.9-4.2-.2-.9-.4-1.7-.7-2.3"/></svg>

